<?xml version="1.0" encoding="UTF-8" standalone="no"?>
<svg
   xmlns:dc="http://purl.org/dc/elements/1.1/"
   xmlns:cc="http://creativecommons.org/ns#"
   xmlns:rdf="http://www.w3.org/1999/02/22-rdf-syntax-ns#"
   xmlns:svg="http://www.w3.org/2000/svg"
   xmlns="http://www.w3.org/2000/svg"
   version="1.1"
   id="svg2985"
   height="64px"
   width="64px">
  <defs
     id="defs2987">
    <marker
       style="overflow:visible"
       id="Arrow1Lstart"
       refX="0.0"
       refY="0.0"
       orient="auto">
      <path
         transform="scale(0.8) translate(12.5,0)"
         style="fill-rule:evenodd;stroke:#000000;stroke-width:1.0pt"
         d="M 0.0,0.0 L 5.0,-5.0 L -12.5,0.0 L 5.0,5.0 L 0.0,0.0 z "
         id="path3809" />
    </marker>
    <marker
       style="overflow:visible"
       id="Arrow1Sstart"
       refX="0.0"
       refY="0.0"
       orient="auto">
      <path
         transform="scale(0.2) translate(6,0)"
         style="fill-rule:evenodd;stroke:#000000;stroke-width:1.0pt"
         d="M 0.0,0.0 L 5.0,-5.0 L -12.5,0.0 L 5.0,5.0 L 0.0,0.0 z "
         id="path3821" />
    </marker>
    <marker
       style="overflow:visible;"
       id="Arrow1Lend"
       refX="0.0"
       refY="0.0"
       orient="auto">
      <path
         transform="scale(0.8) rotate(180) translate(12.5,0)"
         style="fill-rule:evenodd;stroke:#000000;stroke-width:1.0pt;"
         d="M 0.0,0.0 L 5.0,-5.0 L -12.5,0.0 L 5.0,5.0 L 0.0,0.0 z "
         id="path3812" />
    </marker>
    <marker
       style="overflow:visible"
       id="DotL"
       refX="0.0"
       refY="0.0"
       orient="auto">
      <path
         transform="scale(0.8) translate(7.4, 1)"
         style="fill-rule:evenodd;stroke:#000000;stroke-width:1.0pt"
         d="M -2.5,-1.0 C -2.5,1.7600000 -4.7400000,4.0 -7.5,4.0 C -10.260000,4.0 -12.5,1.7600000 -12.5,-1.0 C -12.5,-3.7600000 -10.260000,-6.0 -7.5,-6.0 C -4.7400000,-6.0 -2.5,-3.7600000 -2.5,-1.0 z "
         id="path3870" />
    </marker>
  </defs>
  <metadata
     id="metadata2990">
    <rdf:RDF>
      <cc:Work
         rdf:about="">
        <dc:format>image/svg+xml</dc:format>
        <dc:type
           rdf:resource="http://purl.org/dc/dcmitype/StillImage" />
        <dc:title></dc:title>
      </cc:Work>
    </rdf:RDF>
  </metadata>
  <g
     id="layer1">
    <rect
       transform="matrix(0.70710678,0.70710678,-0.70710678,0.70710678,28,-4.7272727)"
       y="47.267296"
       x="28.41016"
       height="16.545454"
       width="3.0909092"
       id="rect3803"
       style="fill:#646464;fill-opacity:1;stroke:#646464;stroke-width:1;stroke-linecap:round;stroke-linejoin:round;stroke-miterlimit:4;stroke-opacity:1;stroke-dasharray:none;stroke-dashoffset:10" />
    <rect
       transform="matrix(0.70710678,0.70710678,-0.70710678,0.70710678,0,0)"
       y="-39.771118"
       x="45.637852"
       height="16.545454"
       width="3.0909092"
       id="rect3803-3"
       style="fill:#646464;fill-opacity:1;stroke:#646464;stroke-width:1;stroke-linecap:round;stroke-linejoin:round;stroke-miterlimit:4;stroke-opacity:1;stroke-dasharray:none;stroke-dashoffset:10" />
    <rect
       transform="matrix(0.70710678,0.70710678,-0.70710678,0.70710678,0,0)"
       y="-17.915092"
       x="38.952477"
       height="16.545454"
       width="3.0909092"
       id="rect3803-6"
       style="fill:#646464;fill-opacity:1;stroke:#646464;stroke-width:1;stroke-linecap:round;stroke-linejoin:round;stroke-miterlimit:4;stroke-opacity:1;stroke-dasharray:none;stroke-dashoffset:10" />
    <rect
       transform="matrix(0.70710678,0.70710678,-0.70710678,0.70710678,0,0)"
       y="-17.915092"
       x="51.551834"
       height="16.545454"
       width="3.0909092"
       id="rect3803-36"
       style="fill:#646464;fill-opacity:1;stroke:#646464;stroke-width:1;stroke-linecap:round;stroke-linejoin:round;stroke-miterlimit:4;stroke-opacity:1;stroke-dasharray:none;stroke-dashoffset:10" />
    <path
       id="path3382"
       d="m 39.353637,38.068285 c -0.075,-0.04698 -0.639822,-0.594058 -1.255159,-1.215739 -1.185279,-1.1975 -1.230649,-1.260487 -1.108833,-1.53941 0.03276,-0.07501 1.841125,-1.915876 4.018594,-4.090822 2.177469,-2.174947 3.959034,-3.975005 3.959034,-4.00013 0,-0.02512 -1.34995,-1.395515 -2.999889,-3.045313 l -2.99989,-2.999631 -4.011474,4.008487 c -2.730281,2.728248 -4.051397,4.018162 -4.136474,4.038779 -0.06875,0.01666 -0.18125,0.01672 -0.25,1.36e-4 -0.08177,-0.01973 -0.535652,-0.441948 -1.312394,-1.220838 -1.258972,-1.262456 -1.299716,-1.317853 -1.176598,-1.599758 0.03276,-0.07501 1.841125,-1.915877 4.018594,-4.090823 2.177469,-2.174947 3.959034,-3.975 3.959034,-4.00012 0,-0.02512 -1.4625,-1.508064 -3.25,-3.295433 -1.7875,-1.787369 -3.25,-3.273836 -3.25,-3.303261 0,-0.02942 0.203168,-0.241429 0.451484,-0.471122 1.278252,-1.18238 2.839265,-2.241611 4.389425,-2.9784578 5.508288,-2.6182882 11.965321,-2.2369141 17.186472,1.0150909 0.327559,0.2040209 0.858197,0.5669754 1.179195,0.8065649 l 0.583632,0.435618 3.411714,-3.4067548 c 1.876443,-1.8737152 3.458058,-3.4205112 3.514701,-3.4373243 0.231419,-0.068692 0.385832,0.053361 1.565744,1.2376099 0.752181,0.7549454 1.176855,1.2145766 1.196711,1.2952181 0.01693,0.06875 0.01713,0.18125 4.54e-4,0.25 -0.02055,0.084711 -1.127321,1.2238033 -3.433805,3.5340909 l -3.403476,3.4090912 0.274865,0.363636 c 2.576635,3.408791 3.894104,7.830144 3.582518,12.022727 -0.314706,4.234558 -1.957282,7.961742 -4.880367,11.07408 L 54.926844,37.131306 51.4016,33.608683 47.876355,30.086059 43.887726,34.06988 c -2.193747,2.191101 -4.033308,4.006396 -4.087915,4.033987 -0.144648,0.07309 -0.291346,0.06139 -0.44617,-0.03558 l -4e-6,0 z"
       style="opacity:1;fill:#ffff00;fill-opacity:0.78431396;stroke:none;stroke-width:0;stroke-linecap:butt;stroke-linejoin:miter;stroke-miterlimit:4;stroke-dasharray:none;stroke-dashoffset:0;stroke-opacity:1" />
  </g>
  <g
     id="layer2">
    <path
       transform="matrix(-1.4568921,-1.4568921,1.4568921,-1.4568921,17.199533,105.5934)"
       d="m 28.000001,36.454544 a 8.727273,8.636364 0 1 1 -17.454546,0"
       id="path3763-5"
       style="fill:#5a5a5a;fill-opacity:1;fill-rule:evenodd;stroke:none" />
    <path
       transform="matrix(1.4568921,1.4568921,-1.4568921,1.4568921,50.345921,-40.320674)"
       d="m 28.000001,36.454544 a 8.727273,8.636364 0 1 1 -17.454546,0"
       id="path3763"
       style="fill:#5a5a5a;fill-opacity:1;fill-rule:evenodd;stroke:none" />
    <path
       id="path4172"
       d="m 12.545711,28.227519 25.454242,25.363147 0,0"
       style="fill:none;fill-rule:evenodd;stroke:#323232;stroke-width:0.40070996;stroke-linecap:butt;stroke-linejoin:miter;stroke-miterlimit:4;stroke-dasharray:none;stroke-opacity:1" />
    <path
       id="path4172-2"
       d="m 29.665654,11.607078 25.363636,25.363637 0,0"
       style="fill:none;fill-rule:evenodd;stroke:#323232;stroke-width:0.40000001;stroke-linecap:butt;stroke-linejoin:miter;stroke-miterlimit:4;stroke-dasharray:none;stroke-opacity:1" />
  </g>
</svg>
